# xmcd
#
# Track frame offsets:
#	150
#	22309
#	50274
#	70592
#	95196
#	115210
#	130870
#	147695
#	197831
#	264517
#	269636
#
# Disc length: 3947 seconds
#
# Revision: 1
# Processed by: cddbd v1.5.2PL0 Copyright (c) Steve Scherf et al.
# Submitted via: EasyCDDAExtractor 11.1.0.1
#
DISCID=b10f690b
DTITLE=Kiss - Alive 35 - Hartwall Arena, Helsinki, Finland 27.5.2008 [CD1]
DYEAR=2008
DGENRE=
TTITLE0=Deuce
TTITLE1=Strutter
TTITLE2=Got To Choose
TTITLE3=Hotter Than Hell
TTITLE4=Nothing To Lose
TTITLE5=C'Mon And Love Me
TTITLE6=Parasite
TTITLE7=She - Guitar Solo
TTITLE8=100,00 Years - Drum Solo
TTITLE9=I know about Finland and alcohol (Paul speaks)
TTITLE10=Gold Gin
EXTD=
EXTT0=
EXTT1=
EXTT2=
EXTT3=
EXTT4=
EXTT5=
EXTT6=
EXTT7=
EXTT8=
EXTT9=
EXTT10=
PLAYORDER=
